<svg width="621" height="463" viewBox="0 0 621 463" fill="none" xmlns="http://www.w3.org/2000/svg">
<path d="M620.884 406.555H0V406.865H620.884V406.555Z" fill="#EBEBEB"/>
<path d="M106.271 418.377H65.1432V418.687H106.271V418.377Z" fill="#EBEBEB"/>
<path d="M279.398 418.538H212.516V418.848H279.398V418.538Z" fill="#EBEBEB"/>
<path d="M155.171 424.784H131.342V425.095H155.171V424.784Z" fill="#EBEBEB"/>
<path d="M553.829 424.635H529.95V424.946H553.829V424.635Z" fill="#EBEBEB"/>
<path d="M518.885 424.635H481.272V424.946H518.885V424.635Z" fill="#EBEBEB"/>
<path d="M460.56 422.586H407.71V422.897H460.56V422.586Z" fill="#EBEBEB"/>
<path d="M294.299 351.172H54.5261C52.6477 351.169 50.8474 350.42 49.5204 349.091C48.1933 347.762 47.448 345.96 47.448 344.082V7.02841C47.4643 5.16082 48.2169 3.3751 49.5422 2.05912C50.8674 0.743146 52.6584 0.00319928 54.5261 0H294.299C296.18 0 297.983 0.747033 299.313 2.07676C300.643 3.40649 301.39 5.20998 301.39 7.0905V344.082C301.39 345.962 300.643 347.766 299.313 349.095C297.983 350.425 296.18 351.172 294.299 351.172ZM54.5261 0.248355C52.73 0.251644 51.0087 0.967418 49.7399 2.23857C48.4711 3.50972 47.7584 5.23238 47.7584 7.02841V344.082C47.7584 345.878 48.4711 347.6 49.7399 348.871C51.0087 350.143 52.73 350.858 54.5261 350.862H294.299C296.096 350.858 297.819 350.143 299.09 348.872C300.361 347.601 301.076 345.879 301.079 344.082V7.02841C301.076 5.23123 300.361 3.50861 299.09 2.23781C297.819 0.967015 296.096 0.251637 294.299 0.248355H54.5261Z" fill="#EBEBEB"/>
<path d="M562.906 351.172H323.121C321.241 351.169 319.439 350.421 318.11 349.092C316.781 347.763 316.033 345.961 316.03 344.082V7.02841C316.05 5.15969 316.805 3.37398 318.132 2.05835C319.459 0.742712 321.252 0.00316439 323.121 0H562.906C564.772 0.00646278 566.559 0.747854 567.882 2.06348C569.205 3.37911 569.955 5.16297 569.972 7.02841V344.082C569.972 345.958 569.228 347.758 567.904 349.087C566.579 350.416 564.782 351.165 562.906 351.172ZM323.121 0.248355C321.323 0.251637 319.601 0.967015 318.33 2.23781C317.059 3.50861 316.344 5.23123 316.341 7.02841V344.082C316.344 345.879 317.059 347.601 318.33 348.872C319.601 350.143 321.323 350.858 323.121 350.862H562.906C564.703 350.858 566.426 350.143 567.697 348.872C568.967 347.601 569.683 345.879 569.686 344.082V7.02841C569.683 5.23123 568.967 3.50861 567.697 2.23781C566.426 0.967015 564.703 0.251637 562.906 0.248355H323.121Z" fill="#EBEBEB"/>
<path d="M375.287 406.555H410.454V231.59H375.287V406.555Z" fill="#E6E6E6"/>
<path d="M381.956 406.555H375.275V387.556H388.959L381.956 406.555Z" fill="#F0F0F0"/>
<path d="M506.716 406.555H541.883V231.59H506.716V406.555Z" fill="#E6E6E6"/>
<path d="M375.287 394.895H512.552V231.59L375.287 231.59V394.895Z" fill="#F0F0F0"/>
<path d="M380.465 339.388V371.14H441.672V339.388H380.465Z" fill="#E6E6E6"/>
<path d="M446.155 339.388V371.14H507.362V339.388H446.155Z" fill="#E6E6E6"/>
<path d="M470.705 344.702H482.812C485.416 344.704 487.992 344.174 490.383 343.145C492.775 342.116 494.931 340.609 496.72 338.717H456.797C458.586 340.609 460.742 342.116 463.133 343.145C465.525 344.174 468.101 344.704 470.705 344.702Z" fill="#F0F0F0"/>
<path d="M404.394 344.702H416.502C419.105 344.704 421.682 344.174 424.073 343.145C426.465 342.116 428.621 340.609 430.409 338.717H390.486C392.275 340.609 394.431 342.116 396.823 343.145C399.214 344.174 401.791 344.704 404.394 344.702Z" fill="#F0F0F0"/>
<path d="M380.453 290.027V321.779H441.66V290.027H380.453Z" fill="#E6E6E6"/>
<path d="M446.155 290.04V321.792H507.362V290.04H446.155Z" fill="#E6E6E6"/>
<path d="M470.705 295.342H482.812C485.415 295.337 487.989 294.801 490.378 293.768C492.767 292.734 494.921 291.225 496.707 289.332H456.797C458.585 291.227 460.74 292.737 463.132 293.77C465.523 294.804 468.1 295.338 470.705 295.342Z" fill="#F0F0F0"/>
<path d="M404.394 295.342H416.502C419.104 295.343 421.679 294.814 424.07 293.787C426.461 292.76 428.618 291.257 430.409 289.369H390.486C392.278 291.257 394.434 292.76 396.826 293.787C399.217 294.814 401.792 295.343 404.394 295.342Z" fill="#F0F0F0"/>
<path d="M380.465 240.68V272.432H441.672V240.68H380.465Z" fill="#E6E6E6"/>
<path d="M446.155 240.68V272.432H507.362V240.68H446.155Z" fill="#E6E6E6"/>
<path d="M470.705 245.994H482.812C485.416 245.996 487.992 245.466 490.383 244.437C492.775 243.408 494.931 241.901 496.72 240.009H456.797C458.586 241.901 460.742 243.408 463.133 244.437C465.525 245.466 468.101 245.996 470.705 245.994Z" fill="#F0F0F0"/>
<path d="M404.394 245.994H416.502C419.105 245.996 421.682 245.466 424.073 244.437C426.465 243.408 428.621 241.901 430.409 240.009H390.486C392.275 241.901 394.431 243.408 396.823 244.437C399.214 245.466 401.791 245.996 404.394 245.994Z" fill="#F0F0F0"/>
<path d="M505.872 406.555H512.552V387.556H498.868L505.872 406.555Z" fill="#F0F0F0"/>
<path d="M511.658 111.474L517.035 126.176H511.658L478.664 111.474H511.658Z" fill="#F5F5F5"/>
<path d="M517.035 111.474V126.176L484.054 111.474H517.035Z" fill="#E6E6E6"/>
<path d="M382.303 111.474L387.68 126.176H382.303L349.322 111.474H382.303Z" fill="#F5F5F5"/>
<path d="M387.68 111.474V126.176L354.699 111.474H387.68Z" fill="#E6E6E6"/>
<path d="M541.25 100.968H505.375V112.157H541.25V100.968Z" fill="#E6E6E6"/>
<path d="M327.02 112.169L505.375 112.169V100.981L327.02 100.981V112.169Z" fill="#F5F5F5"/>
<path d="M469.153 62.0884C469.153 62.0884 469.513 100.981 482.936 100.981C496.36 100.981 496.707 62.0884 496.707 62.0884H469.153Z" fill="#F0F0F0"/>
<path d="M385.917 88.2897C385.917 88.2897 386.861 100.968 422.971 100.968C459.082 100.968 460.026 88.2897 460.026 88.2897H385.917Z" fill="#F0F0F0"/>
<path d="M278.603 406.555H281L287.867 372.717L289.109 366.781L296.559 329.901H325.343L340.903 406.555H343.312L327.454 328.497C327.402 328.23 327.258 327.989 327.047 327.817C326.836 327.645 326.572 327.552 326.299 327.554H295.603C295.332 327.552 295.069 327.646 294.86 327.818C294.652 327.991 294.51 328.231 294.461 328.497L287.879 360.883L286.637 366.806L278.603 406.555Z" fill="#F0F0F0"/>
<path d="M232.496 406.555H234.893L250.465 329.901H279.174L286.625 366.806L287.867 372.717L294.746 406.555H297.143L289.071 366.818L287.829 360.92L281.248 328.535C281.184 328.274 281.036 328.04 280.828 327.87C280.62 327.7 280.362 327.602 280.093 327.591H249.509C249.236 327.589 248.972 327.682 248.761 327.854C248.55 328.027 248.406 328.267 248.354 328.535L232.496 406.555Z" fill="#F0F0F0"/>
<path d="M329.64 318.613H246.106C244.19 318.616 242.354 319.379 240.999 320.733C239.645 322.088 238.882 323.924 238.879 325.84V326.088C238.879 326.79 239.158 327.463 239.654 327.959C240.15 328.455 240.822 328.733 241.524 328.733H334.222C334.923 328.733 335.596 328.455 336.092 327.959C336.588 327.463 336.867 326.79 336.867 326.088V325.84C336.864 323.924 336.101 322.088 334.747 320.733C333.392 319.379 331.556 318.616 329.64 318.613Z" fill="#F0F0F0"/>
<path d="M194.771 406.555H197.168L204.035 372.717L205.277 366.781L212.727 329.901H241.437L257.046 406.555H259.455L243.598 328.497C243.546 328.23 243.402 327.989 243.191 327.817C242.98 327.645 242.715 327.552 242.443 327.554H211.771C211.5 327.552 211.237 327.646 211.029 327.818C210.82 327.991 210.678 328.231 210.629 328.497L204.047 360.883L202.806 366.806L194.771 406.555Z" fill="#F0F0F0"/>
<path d="M148.665 406.555H151.074L166.633 329.901H195.355L202.806 366.806L204.047 372.717L210.927 406.555H213.323L205.252 366.818L204.01 360.92L197.441 328.497C197.377 328.236 197.23 328.003 197.021 327.833C196.813 327.663 196.555 327.565 196.286 327.554H165.677C165.404 327.552 165.14 327.645 164.929 327.817C164.718 327.989 164.574 328.23 164.522 328.497L148.665 406.555Z" fill="#F0F0F0"/>
<path d="M245.87 318.613H162.274C160.359 318.616 158.522 319.379 157.168 320.733C155.813 322.088 155.051 323.924 155.047 325.84V326.088C155.047 326.79 155.326 327.463 155.822 327.959C156.318 328.455 156.991 328.733 157.692 328.733H250.403C250.749 328.733 251.093 328.665 251.413 328.532C251.733 328.399 252.024 328.204 252.269 327.958C252.513 327.712 252.707 327.42 252.838 327.1C252.97 326.779 253.037 326.435 253.035 326.088V325.84C253.032 323.935 252.278 322.108 250.937 320.755C249.596 319.402 247.775 318.633 245.87 318.613Z" fill="#F0F0F0"/>
<path d="M104.718 220.538L224.735 220.538L224.735 28.2751L104.718 28.2751L104.718 220.538Z" fill="#E6E6E6"/>
<path d="M96.8828 220.538L221.072 220.538L221.072 28.2751L96.8828 28.2751L96.8828 220.538Z" fill="#F0F0F0"/>
<path d="M104.718 235.104L224.735 235.104V220.526H104.718V235.104Z" fill="#E6E6E6"/>
<path d="M83.8193 235.104L208.009 235.104V220.526L83.8193 220.526V235.104Z" fill="#F0F0F0"/>
<path d="M210.082 209.561V39.2523L107.848 39.2523L107.848 209.561H210.082Z" fill="#FAFAFA"/>
<path d="M210.964 209.548L175.002 39.2523H144.579L180.541 209.548H210.964Z" fill="white"/>
<path d="M202.681 189.208C202.889 189.208 203.088 189.126 203.235 188.979C203.381 188.832 203.464 188.633 203.464 188.426V46.3925C203.464 46.185 203.381 45.986 203.235 45.8393C203.088 45.6926 202.889 45.6102 202.681 45.6102C202.474 45.6102 202.275 45.6926 202.128 45.8393C201.982 45.986 201.899 46.185 201.899 46.3925V188.426C201.899 188.633 201.982 188.832 202.128 188.979C202.275 189.126 202.474 189.208 202.681 189.208Z" fill="#F0F0F0"/>
<path d="M174.009 209.548L138.047 39.2523H126.189L162.138 209.548H174.009Z" fill="white"/>
<path d="M109.251 209.561L109.251 39.2523H107.86L107.86 209.561H109.251Z" fill="#E6E6E6"/>
<path opacity="0.6" d="M94.275 47.6839H214.292L215.31 43.5116H95.2933L94.275 47.6839Z" fill="#F0F0F0"/>
<path opacity="0.6" d="M94.275 57.3821H214.292L215.31 53.2222H95.2933L94.275 57.3821Z" fill="#F0F0F0"/>
<path opacity="0.6" d="M94.275 67.0928H214.292L215.31 62.9204H95.2933L94.275 67.0928Z" fill="#F0F0F0"/>
<path opacity="0.6" d="M94.275 76.791H214.292L215.31 72.631H95.2933L94.275 76.791Z" fill="#F0F0F0"/>
<path opacity="0.6" d="M94.275 86.5016H214.292L215.31 82.3417H95.2933L94.275 86.5016Z" fill="#F0F0F0"/>
<path opacity="0.6" d="M94.275 96.2122H214.292L215.31 92.0399H95.2933L94.275 96.2122Z" fill="#F0F0F0"/>
<path d="M310.442 462.633C443.414 462.633 551.209 456.34 551.209 448.576C551.209 440.813 443.414 434.52 310.442 434.52C177.47 434.52 69.6757 440.813 69.6757 448.576C69.6757 456.34 177.47 462.633 310.442 462.633Z" fill="#F5F5F5"/>
<path d="M301.899 257.953H226.039C224.969 257.953 224.102 258.82 224.102 259.89V291.53C224.102 292.6 224.969 293.467 226.039 293.467H301.899C302.969 293.467 303.836 292.6 303.836 291.53V259.89C303.836 258.82 302.969 257.953 301.899 257.953Z" fill="#B75656"/>
<path opacity="0.6" d="M301.899 257.953H226.039C224.969 257.953 224.102 258.82 224.102 259.89V291.53C224.102 292.6 224.969 293.467 226.039 293.467H301.899C302.969 293.467 303.836 292.6 303.836 291.53V259.89C303.836 258.82 302.969 257.953 301.899 257.953Z" fill="white"/>
<path opacity="0.1" d="M301.886 257.953H226.002C225.488 257.953 224.995 258.157 224.632 258.52C224.269 258.883 224.065 259.376 224.065 259.89V270.035L263.553 277.808C263.795 277.858 264.044 277.858 264.286 277.808L303.786 270.035V259.89C303.786 259.382 303.587 258.895 303.232 258.533C302.877 258.171 302.394 257.962 301.886 257.953Z" fill="black"/>
<path d="M303.55 244.964H280.379V241.077C280.376 239.471 279.736 237.931 278.6 236.796C277.465 235.66 275.925 235.02 274.319 235.017H253.619C252.013 235.02 250.473 235.66 249.337 236.796C248.202 237.931 247.562 239.471 247.559 241.077V244.964H224.4C223.893 244.964 223.406 245.165 223.048 245.524C222.689 245.882 222.488 246.369 222.488 246.876V266.012C222.49 266.453 222.645 266.881 222.925 267.222C223.205 267.564 223.595 267.798 224.027 267.887L263.603 275.673C263.845 275.71 264.092 275.71 264.335 275.673L303.91 267.887C304.345 267.799 304.735 267.565 305.018 267.223C305.3 266.882 305.457 266.455 305.463 266.012V246.876C305.463 246.369 305.261 245.882 304.903 245.524C304.544 245.165 304.057 244.964 303.55 244.964ZM252.166 241.077C252.169 240.691 252.323 240.322 252.594 240.049C252.866 239.775 253.233 239.618 253.619 239.612H274.319C274.705 239.618 275.072 239.775 275.344 240.049C275.615 240.322 275.769 240.691 275.772 241.077V244.964H252.178L252.166 241.077Z" fill="#B75656"/>
<path opacity="0.6" d="M303.55 244.964H280.379V241.077C280.376 239.471 279.736 237.931 278.6 236.796C277.465 235.66 275.925 235.02 274.319 235.017H253.619C252.013 235.02 250.473 235.66 249.337 236.796C248.202 237.931 247.562 239.471 247.559 241.077V244.964H224.4C223.893 244.964 223.406 245.165 223.048 245.524C222.689 245.882 222.488 246.369 222.488 246.876V266.012C222.49 266.453 222.645 266.881 222.925 267.222C223.205 267.564 223.595 267.798 224.027 267.887L263.603 275.673C263.845 275.71 264.092 275.71 264.335 275.673L303.91 267.887C304.345 267.799 304.735 267.565 305.018 267.223C305.3 266.882 305.457 266.455 305.463 266.012V246.876C305.463 246.369 305.261 245.882 304.903 245.524C304.544 245.165 304.057 244.964 303.55 244.964ZM252.166 241.077C252.169 240.691 252.323 240.322 252.594 240.049C252.866 239.775 253.233 239.618 253.619 239.612H274.319C274.705 239.618 275.072 239.775 275.344 240.049C275.615 240.322 275.769 240.691 275.772 241.077V244.964H252.178L252.166 241.077Z" fill="white"/>
<path d="M268.061 270.445H259.89C258.875 270.445 258.052 271.268 258.052 272.283V277.448C258.052 278.463 258.875 279.286 259.89 279.286H268.061C269.076 279.286 269.898 278.463 269.898 277.448V272.283C269.898 271.268 269.076 270.445 268.061 270.445Z" fill="#B75656"/>
<path opacity="0.3" d="M268.061 270.445H259.89C258.875 270.445 258.052 271.268 258.052 272.283V277.448C258.052 278.463 258.875 279.286 259.89 279.286H268.061C269.076 279.286 269.898 278.463 269.898 277.448V272.283C269.898 271.268 269.076 270.445 268.061 270.445Z" fill="white"/>
<path d="M301.899 29.5168H226.039C224.969 29.5168 224.102 30.3841 224.102 31.454V63.0942C224.102 64.1641 224.969 65.0314 226.039 65.0314H301.899C302.969 65.0314 303.836 64.1641 303.836 63.0942V31.454C303.836 30.3841 302.969 29.5168 301.899 29.5168Z" fill="#B75656"/>
<path opacity="0.6" d="M301.899 29.5168H226.039C224.969 29.5168 224.102 30.3841 224.102 31.454V63.0942C224.102 64.1641 224.969 65.0314 226.039 65.0314H301.899C302.969 65.0314 303.836 64.1641 303.836 63.0942V31.454C303.836 30.3841 302.969 29.5168 301.899 29.5168Z" fill="white"/>
<path opacity="0.1" d="M301.886 29.5168H226.002C225.488 29.5168 224.995 29.7209 224.632 30.0842C224.269 30.4475 224.065 30.9402 224.065 31.454V41.5992L263.553 49.3727C263.795 49.4222 264.044 49.4222 264.286 49.3727L303.786 41.5992V31.454C303.786 30.9466 303.587 30.4595 303.232 30.0972C302.877 29.735 302.394 29.5266 301.886 29.5168Z" fill="black"/>
<path d="M303.55 16.5279H280.379V12.6412C280.376 11.035 279.736 9.49561 278.6 8.35988C277.465 7.22416 275.925 6.58466 274.319 6.58138H253.619C252.013 6.58466 250.473 7.22416 249.337 8.35988C248.202 9.49561 247.562 11.035 247.559 12.6412V16.5279H224.4C223.893 16.5279 223.406 16.7294 223.048 17.088C222.689 17.4467 222.488 17.9331 222.488 18.4403V37.5759C222.488 38.0183 222.641 38.447 222.922 38.7889C223.203 39.1308 223.594 39.3648 224.027 39.451L263.603 47.1872C263.844 47.2367 264.094 47.2367 264.335 47.1872L303.91 39.4013C304.34 39.3198 304.728 39.0947 305.013 38.763C305.297 38.4312 305.46 38.0126 305.475 37.5759V18.4403C305.475 18.1881 305.425 17.9384 305.328 17.7056C305.231 17.4727 305.089 17.2614 304.911 17.0836C304.732 16.9059 304.519 16.7653 304.286 16.6699C304.052 16.5746 303.802 16.5263 303.55 16.5279ZM252.166 12.6412C252.166 12.2547 252.319 11.8839 252.591 11.6095C252.863 11.335 253.232 11.1792 253.619 11.1759H274.319C274.703 11.1792 275.071 11.3333 275.343 11.605C275.615 11.8768 275.769 12.2445 275.772 12.6288V16.5155H252.178L252.166 12.6412Z" fill="#B75656"/>
<path opacity="0.6" d="M303.55 16.5279H280.379V12.6412C280.376 11.035 279.736 9.49561 278.6 8.35988C277.465 7.22416 275.925 6.58466 274.319 6.58138H253.619C252.013 6.58466 250.473 7.22416 249.337 8.35988C248.202 9.49561 247.562 11.035 247.559 12.6412V16.5279H224.4C223.893 16.5279 223.406 16.7294 223.048 17.088C222.689 17.4467 222.488 17.9331 222.488 18.4403V37.5759C222.488 38.0183 222.641 38.447 222.922 38.7889C223.203 39.1308 223.594 39.3648 224.027 39.451L263.603 47.1872C263.844 47.2367 264.094 47.2367 264.335 47.1872L303.91 39.4013C304.34 39.3198 304.728 39.0947 305.013 38.763C305.297 38.4312 305.46 38.0126 305.475 37.5759V18.4403C305.475 18.1881 305.425 17.9384 305.328 17.7056C305.231 17.4727 305.089 17.2614 304.911 17.0836C304.732 16.9059 304.519 16.7653 304.286 16.6699C304.052 16.5746 303.802 16.5263 303.55 16.5279ZM252.166 12.6412C252.166 12.2547 252.319 11.8839 252.591 11.6095C252.863 11.335 253.232 11.1792 253.619 11.1759H274.319C274.703 11.1792 275.071 11.3333 275.343 11.605C275.615 11.8768 275.769 12.2445 275.772 12.6288V16.5155H252.178L252.166 12.6412Z" fill="white"/>
<path d="M268.061 42.0214H259.89C258.875 42.0214 258.052 42.8443 258.052 43.8593V49.025C258.052 50.04 258.875 50.8628 259.89 50.8628H268.061C269.076 50.8628 269.898 50.04 269.898 49.025V43.8593C269.898 42.8443 269.076 42.0214 268.061 42.0214Z" fill="#B75656"/>
<path opacity="0.3" d="M268.061 42.0214H259.89C258.875 42.0214 258.052 42.8443 258.052 43.8593V49.025C258.052 50.04 258.875 50.8628 259.89 50.8628H268.061C269.076 50.8628 269.898 50.04 269.898 49.025V43.8593C269.898 42.8443 269.076 42.0214 268.061 42.0214Z" fill="white"/>
<path d="M183.732 257.953H107.872C106.803 257.953 105.935 258.82 105.935 259.89V291.53C105.935 292.6 106.803 293.467 107.872 293.467H183.732C184.802 293.467 185.669 292.6 185.669 291.53V259.89C185.669 258.82 184.802 257.953 183.732 257.953Z" fill="#B75656"/>
<path opacity="0.6" d="M183.732 257.953H107.872C106.803 257.953 105.935 258.82 105.935 259.89V291.53C105.935 292.6 106.803 293.467 107.872 293.467H183.732C184.802 293.467 185.669 292.6 185.669 291.53V259.89C185.669 258.82 184.802 257.953 183.732 257.953Z" fill="white"/>
<path opacity="0.1" d="M183.782 257.953H107.872C107.359 257.953 106.866 258.157 106.503 258.52C106.139 258.883 105.935 259.376 105.935 259.89V270.035L145.423 277.808C145.669 277.858 145.923 277.858 146.169 277.808L185.669 270.035V259.89C185.669 259.384 185.472 258.899 185.119 258.537C184.767 258.175 184.287 257.966 183.782 257.953Z" fill="black"/>
<path d="M185.371 244.964H162.2V241.077C162.196 239.471 161.557 237.931 160.421 236.796C159.286 235.66 157.746 235.02 156.14 235.017H135.452C133.846 235.02 132.306 235.66 131.171 236.796C130.035 237.931 129.396 239.471 129.392 241.077V244.964H106.221C105.714 244.964 105.227 245.165 104.869 245.524C104.51 245.882 104.309 246.369 104.309 246.876V266.012C104.311 266.453 104.465 266.881 104.746 267.222C105.026 267.564 105.415 267.798 105.848 267.887L145.423 275.673C145.67 275.71 145.922 275.71 146.169 275.673L185.744 267.887C186.177 267.798 186.566 267.564 186.846 267.222C187.127 266.881 187.281 266.453 187.284 266.012V246.876C187.284 246.369 187.082 245.882 186.723 245.524C186.365 245.165 185.878 244.964 185.371 244.964ZM133.987 241.077C133.993 240.69 134.15 240.321 134.423 240.048C134.696 239.774 135.065 239.618 135.452 239.612H156.14C156.527 239.618 156.896 239.774 157.169 240.048C157.442 240.321 157.599 240.69 157.605 241.077V244.964H134.012L133.987 241.077Z" fill="#B75656"/>
<path opacity="0.6" d="M185.371 244.964H162.2V241.077C162.196 239.471 161.557 237.931 160.421 236.796C159.286 235.66 157.746 235.02 156.14 235.017H135.452C133.846 235.02 132.306 235.66 131.171 236.796C130.035 237.931 129.396 239.471 129.392 241.077V244.964H106.221C105.714 244.964 105.227 245.165 104.869 245.524C104.51 245.882 104.309 246.369 104.309 246.876V266.012C104.311 266.453 104.465 266.881 104.746 267.222C105.026 267.564 105.415 267.798 105.848 267.887L145.423 275.673C145.67 275.71 145.922 275.71 146.169 275.673L185.744 267.887C186.177 267.798 186.566 267.564 186.846 267.222C187.127 266.881 187.281 266.453 187.284 266.012V246.876C187.284 246.369 187.082 245.882 186.723 245.524C186.365 245.165 185.878 244.964 185.371 244.964ZM133.987 241.077C133.993 240.69 134.15 240.321 134.423 240.048C134.696 239.774 135.065 239.618 135.452 239.612H156.14C156.527 239.618 156.896 239.774 157.169 240.048C157.442 240.321 157.599 240.69 157.605 241.077V244.964H134.012L133.987 241.077Z" fill="white"/>
<path d="M149.881 270.445H141.711C140.696 270.445 139.873 271.268 139.873 272.283V277.448C139.873 278.463 140.696 279.286 141.711 279.286H149.881C150.896 279.286 151.719 278.463 151.719 277.448V272.283C151.719 271.268 150.896 270.445 149.881 270.445Z" fill="#B75656"/>
<path opacity="0.3" d="M149.881 270.445H141.711C140.696 270.445 139.873 271.268 139.873 272.283V277.448C139.873 278.463 140.696 279.286 141.711 279.286H149.881C150.896 279.286 151.719 278.463 151.719 277.448V272.283C151.719 271.268 150.896 270.445 149.881 270.445Z" fill="white"/>
<path d="M183.732 29.5168H107.872C106.803 29.5168 105.935 30.3841 105.935 31.454V63.0942C105.935 64.1641 106.803 65.0314 107.872 65.0314H183.732C184.802 65.0314 185.669 64.1641 185.669 63.0942V31.454C185.669 30.3841 184.802 29.5168 183.732 29.5168Z" fill="#B75656"/>
<path opacity="0.6" d="M183.732 29.5168H107.872C106.803 29.5168 105.935 30.3841 105.935 31.454V63.0942C105.935 64.1641 106.803 65.0314 107.872 65.0314H183.732C184.802 65.0314 185.669 64.1641 185.669 63.0942V31.454C185.669 30.3841 184.802 29.5168 183.732 29.5168Z" fill="white"/>
<path opacity="0.1" d="M183.782 29.5168H107.872C107.359 29.5168 106.866 29.7209 106.503 30.0842C106.139 30.4475 105.935 30.9402 105.935 31.454V41.5992L145.423 49.3727C145.669 49.4226 145.923 49.4226 146.169 49.3727L185.669 41.5992V31.454C185.669 30.9487 185.472 30.4634 185.119 30.1015C184.767 29.7396 184.287 29.5298 183.782 29.5168Z" fill="black"/>
<path d="M185.371 16.5279H162.2V12.6412C162.196 11.035 161.557 9.49558 160.421 8.35985C159.286 7.22413 157.746 6.58463 156.14 6.58134H135.452C133.846 6.58463 132.306 7.22413 131.171 8.35985C130.035 9.49558 129.396 11.035 129.392 12.6412V16.5279H106.221C105.714 16.5279 105.227 16.7294 104.869 17.088C104.51 17.4466 104.309 17.9331 104.309 18.4402V37.5759C104.309 38.0183 104.462 38.447 104.743 38.7889C105.024 39.1308 105.414 39.3648 105.848 39.451L145.423 47.1872C145.669 47.237 145.923 47.237 146.169 47.1872L185.744 39.4013C186.178 39.3151 186.568 39.0811 186.849 38.7392C187.13 38.3973 187.283 37.9686 187.284 37.5262V18.4402C187.284 17.9331 187.082 17.4466 186.723 17.088C186.365 16.7294 185.878 16.5279 185.371 16.5279ZM133.987 12.6412C133.99 12.2536 134.145 11.8827 134.42 11.6086C134.694 11.3346 135.064 11.1791 135.452 11.1759H156.14C156.525 11.1791 156.894 11.3328 157.168 11.6042C157.442 11.8756 157.599 12.2433 157.605 12.6288V16.5155H134.012L133.987 12.6412Z" fill="#B75656"/>
<path opacity="0.6" d="M185.371 16.5279H162.2V12.6412C162.196 11.035 161.557 9.49558 160.421 8.35985C159.286 7.22413 157.746 6.58463 156.14 6.58134H135.452C133.846 6.58463 132.306 7.22413 131.171 8.35985C130.035 9.49558 129.396 11.035 129.392 12.6412V16.5279H106.221C105.714 16.5279 105.227 16.7294 104.869 17.088C104.51 17.4466 104.309 17.9331 104.309 18.4402V37.5759C104.309 38.0183 104.462 38.447 104.743 38.7889C105.024 39.1308 105.414 39.3648 105.848 39.451L145.423 47.1872C145.669 47.237 145.923 47.237 146.169 47.1872L185.744 39.4013C186.178 39.3151 186.568 39.0811 186.849 38.7392C187.13 38.3973 187.283 37.9686 187.284 37.5262V18.4402C187.284 17.9331 187.082 17.4466 186.723 17.088C186.365 16.7294 185.878 16.5279 185.371 16.5279ZM133.987 12.6412C133.99 12.2536 134.145 11.8827 134.42 11.6086C134.694 11.3346 135.064 11.1791 135.452 11.1759H156.14C156.525 11.1791 156.894 11.3328 157.168 11.6042C157.442 11.8756 157.599 12.2433 157.605 12.6288V16.5155H134.012L133.987 12.6412Z" fill="white"/>
<path d="M149.881 42.0214H141.711C140.696 42.0214 139.873 42.8443 139.873 43.8593V49.025C139.873 50.04 140.696 50.8628 141.711 50.8628H149.881C150.896 50.8628 151.719 50.04 151.719 49.025V43.8593C151.719 42.8443 150.896 42.0214 149.881 42.0214Z" fill="#B75656"/>
<path opacity="0.3" d="M149.881 42.0214H141.711C140.696 42.0214 139.873 42.8443 139.873 43.8593V49.025C139.873 50.04 140.696 50.8628 141.711 50.8628H149.881C150.896 50.8628 151.719 50.04 151.719 49.025V43.8593C151.719 42.8443 150.896 42.0214 149.881 42.0214Z" fill="white"/>
<path d="M173.848 179.249H107.872C107.355 179.249 106.859 179.044 106.494 178.678C106.128 178.313 105.923 177.817 105.923 177.3V145.672C105.925 145.411 105.98 145.153 106.084 144.914C106.135 144.803 106.193 144.695 106.258 144.592C106.327 144.485 106.411 144.389 106.506 144.306C106.868 143.942 107.359 143.737 107.872 143.735H170.321C169.801 148.068 169.631 152.437 169.812 156.798C169.812 157.506 169.812 158.214 169.924 158.909C170.011 160.213 170.11 161.529 170.259 162.833C170.898 168.412 172.1 173.912 173.848 179.249Z" fill="#B75656"/>
<path opacity="0.6" d="M173.848 179.249H107.872C107.355 179.249 106.859 179.044 106.494 178.678C106.128 178.313 105.923 177.817 105.923 177.3V145.672C105.925 145.411 105.98 145.153 106.084 144.914C106.135 144.803 106.193 144.695 106.258 144.592C106.327 144.485 106.411 144.389 106.506 144.306C106.868 143.942 107.359 143.737 107.872 143.735H170.321C169.801 148.068 169.631 152.437 169.812 156.798C169.812 157.506 169.812 158.214 169.924 158.909C170.011 160.213 170.11 161.529 170.259 162.833C170.898 168.412 172.1 173.912 173.848 179.249Z" fill="white"/>
<path opacity="0.1" d="M170.321 143.735C169.801 148.068 169.631 152.437 169.812 156.798C169.812 157.506 169.812 158.214 169.924 158.909L151.719 162.485L146.156 163.578C145.916 163.64 145.664 163.64 145.423 163.578L139.873 162.498L105.935 155.817V145.659C105.939 145.404 105.99 145.152 106.084 144.914C106.135 144.803 106.193 144.695 106.258 144.592C106.327 144.485 106.411 144.389 106.506 144.306C106.868 143.942 107.359 143.737 107.872 143.735H170.321Z" fill="black"/>
<path d="M172.916 130.746H162.212V126.859C162.206 125.252 161.563 123.712 160.426 122.577C159.288 121.442 157.747 120.802 156.14 120.799H135.452C133.845 120.799 132.304 121.438 131.167 122.574C130.031 123.711 129.392 125.252 129.392 126.859V130.746H106.221C105.97 130.746 105.721 130.795 105.489 130.891C105.257 130.987 105.046 131.128 104.869 131.306C104.691 131.483 104.55 131.694 104.454 131.926C104.358 132.158 104.309 132.407 104.309 132.658V151.781C104.309 152.227 104.464 152.659 104.747 153.003C105.03 153.347 105.423 153.583 105.861 153.669H105.935L139.873 160.362L145.423 161.442C145.665 161.492 145.914 161.492 146.156 161.442L151.719 160.35L169.812 156.786C169.631 152.425 169.801 148.056 170.321 143.722C170.837 139.334 171.705 134.995 172.916 130.746ZM133.987 126.859C133.993 126.474 134.15 126.106 134.424 125.835C134.698 125.563 135.067 125.409 135.452 125.406H156.14C156.524 125.409 156.892 125.564 157.164 125.835C157.435 126.107 157.59 126.475 157.593 126.859V130.746H133.999L133.987 126.859Z" fill="#B75656"/>
<path opacity="0.6" d="M172.916 130.746H162.212V126.859C162.206 125.252 161.563 123.712 160.426 122.577C159.288 121.442 157.747 120.802 156.14 120.799H135.452C133.845 120.799 132.304 121.438 131.167 122.574C130.031 123.711 129.392 125.252 129.392 126.859V130.746H106.221C105.97 130.746 105.721 130.795 105.489 130.891C105.257 130.987 105.046 131.128 104.869 131.306C104.691 131.483 104.55 131.694 104.454 131.926C104.358 132.158 104.309 132.407 104.309 132.658V151.781C104.309 152.227 104.464 152.659 104.747 153.003C105.03 153.347 105.423 153.583 105.861 153.669H105.935L139.873 160.362L145.423 161.442C145.665 161.492 145.914 161.492 146.156 161.442L151.719 160.35L169.812 156.786C169.631 152.425 169.801 148.056 170.321 143.722C170.837 139.334 171.705 134.995 172.916 130.746ZM133.987 126.859C133.993 126.474 134.15 126.106 134.424 125.835C134.698 125.563 135.067 125.409 135.452 125.406H156.14C156.524 125.409 156.892 125.564 157.164 125.835C157.435 126.107 157.59 126.475 157.593 126.859V130.746H133.999L133.987 126.859Z" fill="white"/>
<path d="M149.881 156.227H141.711C140.696 156.227 139.873 157.05 139.873 158.065V163.23C139.873 164.245 140.696 165.068 141.711 165.068H149.881C150.896 165.068 151.719 164.245 151.719 163.23V158.065C151.719 157.05 150.896 156.227 149.881 156.227Z" fill="#B75656"/>
<path opacity="0.3" d="M149.881 156.227H141.711C140.696 156.227 139.873 157.05 139.873 158.065V163.23C139.873 164.245 140.696 165.068 141.711 165.068H149.881C150.896 165.068 151.719 164.245 151.719 163.23V158.065C151.719 157.05 150.896 156.227 149.881 156.227Z" fill="white"/>
<path d="M344.206 293.455H420.065C421.135 293.455 422.003 292.587 422.003 291.518V259.877C422.003 258.807 421.135 257.94 420.065 257.94H344.206C343.136 257.94 342.269 258.807 342.269 259.877V291.518C342.269 292.587 343.136 293.455 344.206 293.455Z" fill="#B75656"/>
<path opacity="0.6" d="M344.206 293.455H420.065C421.135 293.455 422.003 292.587 422.003 291.518V259.877C422.003 258.807 421.135 257.94 420.065 257.94H344.206C343.136 257.94 342.269 258.807 342.269 259.877V291.518C342.269 292.587 343.136 293.455 344.206 293.455Z" fill="white"/>
<path opacity="0.1" d="M344.218 257.953H420.065C420.579 257.953 421.072 258.157 421.435 258.52C421.798 258.883 422.003 259.376 422.003 259.89V270.035L382.465 277.808C382.223 277.858 381.974 277.858 381.732 277.808L342.231 270.035V259.89C342.231 259.631 342.283 259.375 342.383 259.137C342.484 258.898 342.631 258.683 342.816 258.502C343.001 258.321 343.221 258.18 343.462 258.085C343.702 257.991 343.96 257.946 344.218 257.953Z" fill="black"/>
<path d="M342.567 244.964H365.738V241.077C365.741 239.471 366.381 237.931 367.517 236.796C368.652 235.66 370.192 235.02 371.798 235.017H392.498C394.104 235.02 395.644 235.66 396.78 236.796C397.915 237.931 398.555 239.471 398.558 241.077V244.964H421.717C421.968 244.964 422.217 245.013 422.449 245.109C422.681 245.205 422.892 245.346 423.069 245.524C423.247 245.701 423.388 245.912 423.484 246.144C423.58 246.376 423.629 246.625 423.629 246.876V266.012C423.627 266.453 423.472 266.881 423.192 267.222C422.912 267.564 422.522 267.798 422.09 267.887L382.465 275.673C382.218 275.71 381.967 275.71 381.72 275.673L342.144 267.887C341.712 267.798 341.322 267.564 341.042 267.222C340.762 266.881 340.607 266.453 340.605 266.012V246.876C340.605 246.621 340.656 246.368 340.755 246.132C340.854 245.897 340.999 245.684 341.182 245.506C341.365 245.328 341.582 245.188 341.82 245.095C342.057 245.002 342.311 244.957 342.567 244.964ZM393.951 241.077C393.948 240.691 393.794 240.322 393.523 240.049C393.251 239.775 392.884 239.618 392.498 239.612H371.798C371.411 239.618 371.042 239.774 370.769 240.048C370.495 240.321 370.339 240.69 370.333 241.077V244.964H393.926L393.951 241.077Z" fill="#B75656"/>
<path opacity="0.6" d="M342.567 244.964H365.738V241.077C365.741 239.471 366.381 237.931 367.517 236.796C368.652 235.66 370.192 235.02 371.798 235.017H392.498C394.104 235.02 395.644 235.66 396.78 236.796C397.915 237.931 398.555 239.471 398.558 241.077V244.964H421.717C421.968 244.964 422.217 245.013 422.449 245.109C422.681 245.205 422.892 245.346 423.069 245.524C423.247 245.701 423.388 245.912 423.484 246.144C423.58 246.376 423.629 246.625 423.629 246.876V266.012C423.627 266.453 423.472 266.881 423.192 267.222C422.912 267.564 422.522 267.798 422.09 267.887L382.465 275.673C382.218 275.71 381.967 275.71 381.72 275.673L342.144 267.887C341.712 267.798 341.322 267.564 341.042 267.222C340.762 266.881 340.607 266.453 340.605 266.012V246.876C340.605 246.621 340.656 246.368 340.755 246.132C340.854 245.897 340.999 245.684 341.182 245.506C341.365 245.328 341.582 245.188 341.82 245.095C342.057 245.002 342.311 244.957 342.567 244.964ZM393.951 241.077C393.948 240.691 393.794 240.322 393.523 240.049C393.251 239.775 392.884 239.618 392.498 239.612H371.798C371.411 239.618 371.042 239.774 370.769 240.048C370.495 240.321 370.339 240.69 370.333 241.077V244.964H393.926L393.951 241.077Z" fill="white"/>
<path d="M378.056 279.286H386.227C387.242 279.286 388.065 278.463 388.065 277.448V272.283C388.065 271.268 387.242 270.445 386.227 270.445H378.056C377.041 270.445 376.219 271.268 376.219 272.283V277.448C376.219 278.463 377.041 279.286 378.056 279.286Z" fill="#B75656"/>
<path opacity="0.3" d="M378.056 279.286H386.227C387.242 279.286 388.065 278.463 388.065 277.448V272.283C388.065 271.268 387.242 270.445 386.227 270.445H378.056C377.041 270.445 376.219 271.268 376.219 272.283V277.448C376.219 278.463 377.041 279.286 378.056 279.286Z" fill="white"/>
<path d="M344.206 65.019L420.065 65.019C421.135 65.019 422.003 64.1517 422.003 63.0818V31.4416C422.003 30.3717 421.135 29.5044 420.065 29.5044L344.206 29.5044C343.136 29.5044 342.269 30.3717 342.269 31.4416V63.0818C342.269 64.1517 343.136 65.019 344.206 65.019Z" fill="#B75656"/>
<path opacity="0.6" d="M344.206 65.019L420.065 65.019C421.135 65.019 422.003 64.1517 422.003 63.0818V31.4416C422.003 30.3717 421.135 29.5044 420.065 29.5044L344.206 29.5044C343.136 29.5044 342.269 30.3717 342.269 31.4416V63.0818C342.269 64.1517 343.136 65.019 344.206 65.019Z" fill="white"/>
<path opacity="0.1" d="M344.218 29.5168H420.065C420.579 29.5168 421.072 29.7209 421.435 30.0842C421.798 30.4475 422.003 30.9402 422.003 31.454V41.5992L382.465 49.3727C382.223 49.4222 381.974 49.4222 381.732 49.3727L342.281 41.5992V31.454C342.281 30.9402 342.485 30.4475 342.848 30.0842C343.212 29.7209 343.704 29.5168 344.218 29.5168Z" fill="black"/>
<path d="M342.567 16.5279H365.738V12.6412C365.741 11.035 366.381 9.49561 367.517 8.35988C368.652 7.22415 370.192 6.58465 371.798 6.58137H392.498C393.298 6.57646 394.09 6.72949 394.83 7.03168C395.571 7.33386 396.244 7.77925 396.812 8.34228C397.379 8.90532 397.83 9.57491 398.138 10.3126C398.447 11.0504 398.606 11.8417 398.608 12.6412V16.5279H421.767C422.274 16.5279 422.76 16.7294 423.119 17.088C423.478 17.4467 423.679 17.9331 423.679 18.4403V37.5759C423.679 38.0183 423.525 38.447 423.245 38.7889C422.964 39.1308 422.573 39.3648 422.139 39.451L382.465 47.1872C382.219 47.237 381.965 47.237 381.72 47.1872L342.144 39.4013C341.711 39.3151 341.32 39.0811 341.039 38.7392C340.758 38.3973 340.605 37.9687 340.605 37.5262V18.4403C340.605 18.1849 340.656 17.9321 340.755 17.6968C340.854 17.4615 340.999 17.2484 341.182 17.0702C341.365 16.8919 341.582 16.7521 341.82 16.659C342.057 16.5659 342.311 16.5213 342.567 16.5279ZM393.951 12.6412C393.951 12.2547 393.798 11.8839 393.526 11.6094C393.254 11.335 392.885 11.1792 392.498 11.1759H371.798C371.412 11.1791 371.043 11.3328 370.77 11.6042C370.496 11.8757 370.339 12.2433 370.333 12.6288V16.5155H393.926L393.951 12.6412Z" fill="#B75656"/>
<path opacity="0.6" d="M342.567 16.5279H365.738V12.6412C365.741 11.035 366.381 9.49561 367.517 8.35988C368.652 7.22415 370.192 6.58465 371.798 6.58137H392.498C393.298 6.57646 394.09 6.72949 394.83 7.03168C395.571 7.33386 396.244 7.77925 396.812 8.34228C397.379 8.90532 397.83 9.57491 398.138 10.3126C398.447 11.0504 398.606 11.8417 398.608 12.6412V16.5279H421.767C422.274 16.5279 422.76 16.7294 423.119 17.088C423.478 17.4467 423.679 17.9331 423.679 18.4403V37.5759C423.679 38.0183 423.525 38.447 423.245 38.7889C422.964 39.1308 422.573 39.3648 422.139 39.451L382.465 47.1872C382.219 47.237 381.965 47.237 381.72 47.1872L342.144 39.4013C341.711 39.3151 341.32 39.0811 341.039 38.7392C340.758 38.3973 340.605 37.9687 340.605 37.5262V18.4403C340.605 18.1849 340.656 17.9321 340.755 17.6968C340.854 17.4615 340.999 17.2484 341.182 17.0702C341.365 16.8919 341.582 16.7521 341.82 16.659C342.057 16.5659 342.311 16.5213 342.567 16.5279ZM393.951 12.6412C393.951 12.2547 393.798 11.8839 393.526 11.6094C393.254 11.335 392.885 11.1792 392.498 11.1759H371.798C371.412 11.1791 371.043 11.3328 370.77 11.6042C370.496 11.8757 370.339 12.2433 370.333 12.6288V16.5155H393.926L393.951 12.6412Z" fill="white"/>
<path d="M378.056 50.8504H386.227C387.242 50.8504 388.065 50.0276 388.065 49.0126V43.8468C388.065 42.8318 387.242 42.009 386.227 42.009H378.056C377.041 42.009 376.219 42.8318 376.219 43.8468V49.0126C376.219 50.0276 377.041 50.8504 378.056 50.8504Z" fill="#B75656"/>
<path opacity="0.3" d="M378.056 50.8504H386.227C387.242 50.8504 388.065 50.0276 388.065 49.0126V43.8468C388.065 42.8318 387.242 42.009 386.227 42.009H378.056C377.041 42.009 376.219 42.8318 376.219 43.8468V49.0126C376.219 50.0276 377.041 50.8504 378.056 50.8504Z" fill="white"/>
<path d="M354.14 179.249H420.078C420.593 179.246 421.085 179.039 421.448 178.674C421.811 178.309 422.015 177.815 422.015 177.3V145.672C422.013 145.411 421.958 145.153 421.854 144.914C421.808 144.801 421.75 144.692 421.68 144.592C421.611 144.485 421.527 144.389 421.431 144.306C421.253 144.125 421.04 143.981 420.806 143.883C420.571 143.785 420.32 143.734 420.065 143.735H357.629C358.149 148.068 358.319 152.437 358.138 156.798C358.138 157.506 358.138 158.214 358.027 158.909C357.952 160.213 357.84 161.529 357.691 162.833C357.064 168.411 355.874 173.911 354.14 179.249Z" fill="#B75656"/>
<path opacity="0.6" d="M354.14 179.249H420.078C420.593 179.246 421.085 179.039 421.448 178.674C421.811 178.309 422.015 177.815 422.015 177.3V145.672C422.013 145.411 421.958 145.153 421.854 144.914C421.808 144.801 421.75 144.692 421.68 144.592C421.611 144.485 421.527 144.389 421.431 144.306C421.253 144.125 421.04 143.981 420.806 143.883C420.571 143.785 420.32 143.734 420.065 143.735H357.629C358.149 148.068 358.319 152.437 358.138 156.798C358.138 157.506 358.138 158.214 358.027 158.909C357.952 160.213 357.84 161.529 357.691 162.833C357.064 168.411 355.874 173.911 354.14 179.249Z" fill="white"/>
<path opacity="0.1" d="M357.629 143.735C358.149 148.068 358.319 152.437 358.138 156.798C358.138 157.506 358.138 158.214 358.027 158.909L376.256 162.485L381.819 163.578C382.059 163.64 382.311 163.64 382.552 163.578L388.102 162.498L422.04 155.817V145.659C422.036 145.404 421.985 145.152 421.891 144.914C421.845 144.801 421.787 144.692 421.717 144.592C421.648 144.485 421.564 144.389 421.469 144.306C421.29 144.125 421.078 143.981 420.843 143.883C420.609 143.785 420.357 143.734 420.103 143.735H357.629Z" fill="black"/>
<path d="M355.022 130.746H365.738V126.859C365.741 125.253 366.381 123.713 367.517 122.578C368.652 121.442 370.192 120.803 371.798 120.799H392.486C394.094 120.799 395.637 121.437 396.775 122.573C397.914 123.709 398.555 125.251 398.558 126.859V130.746H421.717C422.224 130.746 422.711 130.947 423.069 131.306C423.428 131.665 423.629 132.151 423.629 132.658V151.781C423.63 152.225 423.477 152.656 423.196 153C422.915 153.344 422.524 153.58 422.09 153.669H422.003L388.065 160.362L382.465 161.43C382.223 161.479 381.974 161.479 381.732 161.43L376.169 160.337L358.076 156.773C358.429 147.971 357.381 139.169 354.972 130.696L355.022 130.746ZM393.951 126.859C393.945 126.474 393.788 126.106 393.514 125.835C393.24 125.563 392.871 125.409 392.486 125.406H371.798C371.414 125.409 371.046 125.564 370.774 125.835C370.502 126.107 370.348 126.475 370.345 126.859V130.746H393.939L393.951 126.859Z" fill="#B75656"/>
<path opacity="0.6" d="M355.022 130.746H365.738V126.859C365.741 125.253 366.381 123.713 367.517 122.578C368.652 121.442 370.192 120.803 371.798 120.799H392.486C394.094 120.799 395.637 121.437 396.775 122.573C397.914 123.709 398.555 125.251 398.558 126.859V130.746H421.717C422.224 130.746 422.711 130.947 423.069 131.306C423.428 131.665 423.629 132.151 423.629 132.658V151.781C423.63 152.225 423.477 152.656 423.196 153C422.915 153.344 422.524 153.58 422.09 153.669H422.003L388.065 160.362L382.465 161.43C382.223 161.479 381.974 161.479 381.732 161.43L376.169 160.337L358.076 156.773C358.429 147.971 357.381 139.169 354.972 130.696L355.022 130.746ZM393.951 126.859C393.945 126.474 393.788 126.106 393.514 125.835C393.24 125.563 392.871 125.409 392.486 125.406H371.798C371.414 125.409 371.046 125.564 370.774 125.835C370.502 126.107 370.348 126.475 370.345 126.859V130.746H393.939L393.951 126.859Z" fill="white"/>
<path d="M378.056 165.081H386.227C387.242 165.081 388.065 164.258 388.065 163.243V158.077C388.065 157.062 387.242 156.239 386.227 156.239H378.056C377.041 156.239 376.219 157.062 376.219 158.077V163.243C376.219 164.258 377.041 165.081 378.056 165.081Z" fill="#B75656"/>
<path opacity="0.3" d="M378.056 165.081H386.227C387.242 165.081 388.065 164.258 388.065 163.243V158.077C388.065 157.062 387.242 156.239 386.227 156.239H378.056C377.041 156.239 376.219 157.062 376.219 158.077V163.243C376.219 164.258 377.041 165.081 378.056 165.081Z" fill="white"/>
<path d="M322.487 136.023H213.485C211.949 136.023 210.703 137.269 210.703 138.805V184.266C210.703 185.802 211.949 187.048 213.485 187.048H322.487C324.023 187.048 325.269 185.802 325.269 184.266V138.805C325.269 137.269 324.023 136.023 322.487 136.023Z" fill="#B75656"/>
<path d="M282.85 127.902H253.11C250.855 127.899 248.693 127.002 247.099 125.407C245.504 123.813 244.607 121.651 244.604 119.396V111.759C244.607 109.504 245.504 107.343 247.099 105.748C248.693 104.154 250.855 103.256 253.11 103.253H282.85C285.106 103.253 287.27 104.149 288.865 105.744C290.46 107.34 291.356 109.503 291.356 111.759V119.359C291.361 120.479 291.145 121.589 290.719 122.625C290.294 123.662 289.668 124.604 288.878 125.398C288.088 126.191 287.148 126.821 286.114 127.251C285.079 127.681 283.97 127.902 282.85 127.902ZM253.11 109.499C252.511 109.506 251.939 109.745 251.514 110.167C251.09 110.59 250.847 111.161 250.837 111.759V119.359C250.837 119.968 251.079 120.552 251.51 120.983C251.941 121.414 252.525 121.656 253.134 121.656H282.875C283.484 121.656 284.068 121.414 284.499 120.983C284.93 120.552 285.172 119.968 285.172 119.359V111.759C285.172 111.15 284.93 110.566 284.499 110.135C284.068 109.704 283.484 109.462 282.875 109.462L253.11 109.499Z" fill="#B75656"/>
<path opacity="0.2" d="M322.475 136.023H213.497C213.131 136.022 212.768 136.092 212.429 136.231C212.09 136.371 211.782 136.575 211.522 136.834C211.263 137.092 211.057 137.399 210.916 137.738C210.776 138.076 210.703 138.439 210.703 138.805V153.396L267.452 164.572C267.8 164.647 268.16 164.647 268.508 164.572L325.269 153.396V138.805C325.269 138.439 325.196 138.076 325.056 137.738C324.915 137.399 324.709 137.092 324.45 136.834C324.19 136.575 323.882 136.371 323.543 136.231C323.204 136.092 322.841 136.022 322.475 136.023Z" fill="black"/>
<path d="M325.343 150.254L268.483 161.43C268.129 161.492 267.768 161.492 267.415 161.43L210.554 150.254C209.93 150.131 209.367 149.795 208.962 149.304C208.556 148.812 208.334 148.196 208.331 147.559V120.116C208.331 119.756 208.402 119.399 208.54 119.066C208.678 118.733 208.88 118.431 209.135 118.176C209.39 117.921 209.693 117.719 210.026 117.581C210.359 117.443 210.715 117.372 211.076 117.372H324.847C325.207 117.372 325.564 117.443 325.897 117.581C326.23 117.719 326.532 117.921 326.787 118.176C327.042 118.431 327.244 118.733 327.382 119.066C327.52 119.399 327.591 119.756 327.591 120.116V147.609C327.578 148.241 327.348 148.85 326.938 149.332C326.529 149.814 325.965 150.14 325.343 150.254Z" fill="#B75656"/>
<path d="M273.872 153.992H262.112C260.659 153.992 259.48 155.17 259.48 156.624V164.062C259.48 165.516 260.659 166.695 262.112 166.695H273.872C275.326 166.695 276.505 165.516 276.505 164.062V156.624C276.505 155.17 275.326 153.992 273.872 153.992Z" fill="#B75656"/>
<path opacity="0.4" d="M273.872 153.992H262.112C260.659 153.992 259.48 155.17 259.48 156.624V164.062C259.48 165.516 260.659 166.695 262.112 166.695H273.872C275.326 166.695 276.505 165.516 276.505 164.062V156.624C276.505 155.17 275.326 153.992 273.872 153.992Z" fill="black"/>
<path d="M472.99 164.174C474.418 167.117 475.473 169.899 476.715 172.804C477.957 175.71 478.863 178.604 479.832 181.571C481.795 187.589 483.245 193.762 484.166 200.024C484.29 200.806 484.352 201.651 484.439 202.508L484.563 203.749C484.563 203.973 484.563 204.134 484.563 204.395V205.202C484.605 207.085 484.442 208.967 484.079 210.815C483.463 214.027 482.587 217.183 481.458 220.252C479.338 226.088 476.695 231.719 473.561 237.078L467.253 234.409C468.656 228.746 470.071 222.972 471.139 217.396C471.662 214.725 472.031 212.026 472.245 209.312C472.318 208.203 472.293 207.089 472.17 205.985L472.033 205.202L471.86 204.209C471.723 203.551 471.636 202.893 471.475 202.222C470.237 196.741 468.635 191.348 466.681 186.079C465.738 183.384 464.695 180.702 463.652 178.008C462.608 175.313 461.454 172.606 460.386 170.122L472.99 164.174Z" fill="#7F3E3B"/>
<path d="M467.526 232.757L462.683 237.476L473.25 242.443C473.25 242.443 475.808 237.973 474.045 233.924L467.526 232.757Z" fill="#7F3E3B"/>
<path d="M458.784 244.517L467.7 248.167L473.25 242.393L462.683 237.476L458.784 244.517Z" fill="#7F3E3B"/>
<path opacity="0.2" d="M277.92 239.425C295.492 237.457 312.085 230.323 325.603 218.926C339.12 207.528 348.955 192.378 353.863 175.391C358.771 158.405 358.532 140.344 353.176 123.493C347.821 106.642 337.589 91.7578 323.775 80.7214C309.961 69.685 293.185 62.9924 275.567 61.4897C257.95 59.9871 240.282 63.7418 224.798 72.2793C209.315 80.8168 196.71 93.7536 188.578 109.454C180.446 125.155 177.152 142.914 179.113 160.486C180.415 172.158 184.004 183.459 189.675 193.744C195.345 204.029 202.987 213.095 212.163 220.426C221.338 227.756 231.868 233.207 243.151 236.467C254.434 239.727 266.249 240.733 277.92 239.425Z" fill="#B75656"/>
<path opacity="0.1" d="M212.864 80.1437L348.838 188.749C349.421 187.507 349.968 186.265 350.502 185.024C353.909 176.916 356.086 168.344 356.959 159.592L239.512 65.8137C229.874 69.028 220.86 73.8753 212.864 80.1437Z" fill="white"/>
<path opacity="0.1" d="M181.497 127.741L309.325 229.876C321.47 223.541 331.998 214.501 340.096 203.451L200.496 91.8909C191.499 102.227 184.999 114.493 181.497 127.741Z" fill="white"/>
<path d="M488.226 250.986C488.063 248.726 487.323 246.546 486.078 244.653C485.173 243.261 483.907 242.141 482.415 241.412L473.933 237.252C468.296 234.458 462.621 231.739 456.946 229.019C451.271 226.3 445.559 223.63 439.872 220.935C434.184 218.241 428.447 215.621 422.698 213.05C411.224 207.851 399.676 202.793 388.053 197.876C382.241 195.392 376.417 193.008 370.544 190.674C368.829 189.998 367.435 188.696 366.644 187.032C365.853 185.367 365.725 183.464 366.284 181.708C374.147 156.92 372.356 130.077 361.272 106.553C350.187 83.0285 330.627 64.5588 306.506 54.8409C282.385 45.123 255.484 44.8741 231.187 54.144C206.89 63.4139 186.992 81.5186 175.474 104.834C163.956 128.149 161.669 154.954 169.071 179.883C176.474 204.813 193.018 226.026 215.394 239.278C237.769 252.529 264.324 256.84 289.742 251.348C315.161 245.857 337.567 230.967 352.476 209.66C353.531 208.146 355.123 207.089 356.928 206.704C358.733 206.319 360.618 206.634 362.199 207.586C367.63 210.815 373.085 213.99 378.566 217.111C389.518 223.353 400.553 229.437 411.671 235.365C417.222 238.37 422.847 241.263 428.373 244.206C433.899 247.149 439.549 250.018 445.174 252.899C450.799 255.779 456.35 258.598 462.05 261.38L470.506 265.577C471.992 266.324 473.654 266.65 475.312 266.521C477.568 266.361 479.746 265.621 481.632 264.372C483.882 262.991 485.695 261 486.862 258.632C488.029 256.263 488.502 253.612 488.226 250.986ZM231.962 223.518C217.527 216.395 205.528 205.151 197.483 191.208C189.438 177.266 185.709 161.25 186.766 145.188C187.824 129.125 193.621 113.737 203.425 100.97C213.228 88.202 226.598 78.6282 241.842 73.4592C257.087 68.2902 273.522 67.7581 289.069 71.9302C304.617 76.1022 318.577 84.791 329.186 96.8978C339.795 109.005 346.575 123.985 348.67 139.946C350.764 155.906 348.078 172.129 340.952 186.563C336.223 196.147 329.652 204.704 321.615 211.748C313.578 218.792 304.232 224.183 294.112 227.615C283.991 231.047 273.293 232.451 262.629 231.748C251.966 231.045 241.545 228.249 231.962 223.518Z" fill="#B75656"/>
<path d="M426.163 125.791C426.163 126.524 425.778 127.12 425.293 127.12C424.809 127.12 424.424 126.524 424.424 125.791C424.424 125.059 424.809 124.45 425.293 124.45C425.778 124.45 426.163 125.046 426.163 125.791Z" fill="#263238"/>
<path d="M425.84 127.12C424.967 129.369 423.789 131.488 422.338 133.416C422.84 133.775 423.415 134.02 424.022 134.134C424.629 134.247 425.254 134.227 425.852 134.074L425.84 127.12Z" fill="#630F0F"/>
<path d="M428.77 121.693C428.86 121.691 428.948 121.66 429.02 121.606C429.092 121.552 429.145 121.476 429.172 121.39C429.2 121.304 429.199 121.212 429.172 121.126C429.144 121.04 429.091 120.965 429.019 120.911C428.47 120.5 427.832 120.225 427.156 120.108C426.48 119.991 425.787 120.037 425.132 120.24C425.073 120.256 425.019 120.285 424.971 120.323C424.924 120.361 424.886 120.409 424.858 120.463C424.831 120.518 424.815 120.577 424.812 120.638C424.809 120.698 424.819 120.759 424.84 120.816C424.862 120.873 424.896 120.924 424.939 120.967C424.982 121.01 425.033 121.044 425.09 121.065C425.147 121.087 425.207 121.097 425.268 121.094C425.329 121.091 425.388 121.075 425.442 121.048C425.963 120.893 426.514 120.862 427.049 120.959C427.584 121.056 428.088 121.278 428.522 121.606C428.592 121.664 428.68 121.694 428.77 121.693Z" fill="#263238"/>
<path d="M451.284 131.329C449.967 138.01 448.663 150.242 453.332 154.687C453.332 154.687 451.507 161.455 439.114 161.455C425.455 161.455 432.595 154.687 432.595 154.687C440.045 152.911 439.847 147.386 438.543 142.269L451.284 131.329Z" fill="#7F3E3B"/>
<path d="M455.729 150.502C456.76 150.838 455.419 156.972 455.419 156.972C455.419 156.972 453.717 161.256 432.582 159.766C430.956 159.642 431.577 153.756 433.129 152.899C438.133 150.167 452.401 149.41 455.729 150.502Z" fill="#263238"/>
<path d="M498.657 407.064C499.799 406.952 501.463 404.854 501.935 404.084C501.956 404.05 501.967 404.012 501.967 403.972C501.967 403.933 501.956 403.894 501.935 403.86C501.915 403.824 501.884 403.794 501.846 403.776C501.808 403.759 501.765 403.753 501.724 403.761C501.6 403.761 498.595 404.332 497.862 405.499C497.785 405.622 497.734 405.759 497.713 405.902C497.691 406.046 497.7 406.192 497.738 406.331C497.899 406.878 498.21 407.027 498.458 407.064H498.657ZM501.277 404.295C500.47 405.413 499.141 406.716 498.508 406.629C498.446 406.629 498.26 406.629 498.148 406.207C498.124 406.126 498.118 406.041 498.131 405.957C498.143 405.873 498.175 405.793 498.222 405.723C499.078 404.957 500.141 404.461 501.277 404.295Z" fill="#B75656"/>
<path d="M501.153 404.295C501.375 404.276 501.595 404.239 501.811 404.183C501.848 404.171 501.881 404.15 501.907 404.122C501.933 404.094 501.951 404.059 501.96 404.022C501.967 403.983 501.964 403.943 501.951 403.906C501.938 403.869 501.915 403.836 501.886 403.811C501.811 403.736 499.799 402.023 498.433 402.159C498.269 402.17 498.109 402.215 497.963 402.292C497.818 402.369 497.69 402.476 497.589 402.606C497.472 402.719 497.399 402.869 497.383 403.031C497.367 403.193 497.409 403.355 497.502 403.488C497.949 404.196 499.911 404.419 501.153 404.295ZM501.252 403.86C500.01 404.009 498.198 403.761 497.85 403.252C497.85 403.252 497.75 403.09 497.924 402.867C497.994 402.785 498.079 402.718 498.175 402.669C498.271 402.62 498.376 402.59 498.483 402.581C499.513 402.724 500.476 403.169 501.252 403.86Z" fill="#B75656"/>
<path d="M413.285 439.723C414.226 439.719 415.165 439.636 416.092 439.474C416.133 439.463 416.171 439.441 416.202 439.41C416.232 439.38 416.254 439.342 416.266 439.3C416.273 439.256 416.266 439.211 416.246 439.17C416.226 439.13 416.194 439.097 416.154 439.077C416.017 438.99 412.838 437.177 411.311 437.587C411.025 437.66 410.779 437.843 410.628 438.096C410.531 438.234 410.479 438.399 410.479 438.568C410.479 438.737 410.531 438.902 410.628 439.04C411.025 439.586 412.118 439.723 413.285 439.723ZM415.396 439.151C413.695 439.387 411.385 439.375 410.963 438.791C410.901 438.717 410.852 438.58 410.963 438.307C411.009 438.23 411.07 438.164 411.143 438.113C411.215 438.062 411.298 438.026 411.385 438.009C412.366 437.748 414.279 438.58 415.396 439.151Z" fill="#B75656"/>
<path d="M415.992 439.474C416.037 439.487 416.084 439.487 416.129 439.474C416.158 439.45 416.18 439.419 416.195 439.385C416.21 439.351 416.217 439.313 416.216 439.276C416.216 439.176 415.955 436.718 414.8 435.761C414.629 435.619 414.431 435.512 414.218 435.448C414.004 435.384 413.78 435.364 413.559 435.389C412.963 435.451 412.801 435.749 412.751 435.997C412.59 437.028 414.775 439.002 415.868 439.499L415.992 439.474ZM413.77 435.749C414.047 435.757 414.314 435.857 414.527 436.035C415.216 436.822 415.65 437.801 415.769 438.841C414.639 438.17 413.161 436.618 413.285 435.997C413.285 435.997 413.285 435.799 413.708 435.761L413.77 435.749Z" fill="#B75656"/>
<path d="M426.076 439.263H416.961L416.042 418.128H425.169L426.076 439.263Z" fill="#7F3E3B"/>
<path d="M509.907 397.403L502.792 403.103L484.687 390.536L491.815 384.836L509.907 397.403Z" fill="#7F3E3B"/>
<path d="M501.488 402.743L508.765 395.528C508.895 395.402 509.064 395.324 509.244 395.306C509.425 395.288 509.606 395.331 509.758 395.429L516.75 399.924C516.919 400.034 517.061 400.18 517.166 400.353C517.27 400.526 517.334 400.72 517.352 400.922C517.37 401.123 517.341 401.325 517.269 401.514C517.197 401.702 517.083 401.872 516.936 402.01C514.353 404.494 512.975 405.562 509.771 408.728C507.809 410.69 503.003 416.526 500.284 419.221C497.564 421.916 494.534 419.581 495.416 418.228C499.328 412.193 500.656 407.213 500.83 404.183C500.867 403.639 501.101 403.127 501.488 402.743Z" fill="#263238"/>
<path d="M417.011 438.208H426.945C427.125 438.207 427.3 438.268 427.44 438.381C427.581 438.494 427.678 438.652 427.715 438.829L429.515 446.937C429.561 447.132 429.561 447.335 429.516 447.53C429.471 447.725 429.383 447.907 429.257 448.063C429.132 448.218 428.972 448.343 428.791 448.428C428.61 448.513 428.411 448.555 428.211 448.552C424.61 448.552 419.42 448.291 414.9 448.291C409.622 448.291 405.065 448.576 398.868 448.576C395.143 448.576 394.088 444.789 395.652 444.441C402.792 442.889 408.616 442.715 414.775 438.915C415.44 438.476 416.214 438.231 417.011 438.208Z" fill="#263238"/>
<path d="M471.313 157.419C479.223 161.144 482.489 186.675 482.489 186.675L464.297 193.815C461.474 186.902 459.186 179.783 457.455 172.519C454.909 160.995 463.18 153.545 471.313 157.419Z" fill="#B75656"/>
<path opacity="0.3" d="M471.313 157.419C479.223 161.144 482.489 186.675 482.489 186.675L464.297 193.815C461.474 186.902 459.186 179.783 457.455 172.519C454.909 160.995 463.18 153.545 471.313 157.419Z" fill="white"/>
<path opacity="0.2" d="M459.529 164.907C458.909 164.606 458.26 164.369 457.592 164.199C456.866 166.922 456.84 169.784 457.517 172.519C459.241 179.783 461.524 186.903 464.347 193.815L470.345 191.468C469.239 184.8 465.849 167.937 459.529 164.907Z" fill="black"/>
<path d="M418.563 157.22C418.563 157.22 408.852 168.185 418.017 236.073H466.818C467.153 228.622 462.447 192.039 469.674 156.748C464.277 155.71 458.818 155.022 453.332 154.687C446.426 154.289 439.502 154.289 432.595 154.687C427.859 155.164 423.167 156.011 418.563 157.22Z" fill="#B75656"/>
<path opacity="0.3" d="M418.563 157.22C418.563 157.22 408.852 168.185 418.017 236.073H466.818C467.153 228.622 462.447 192.039 469.674 156.748C464.277 155.71 458.818 155.022 453.332 154.687C446.426 154.289 439.502 154.289 432.595 154.687C427.859 155.164 423.167 156.011 418.563 157.22Z" fill="white"/>
<path opacity="0.2" d="M428.41 171.774C426.2 165.143 420.885 163.019 415.471 166.956C414.378 173.388 413.608 183.757 414.49 200.198L424.014 200.111C424.014 200.111 431.676 181.646 428.41 171.774Z" fill="black"/>
<path d="M426.622 169.054C426.225 172.382 425.678 175.4 425.07 178.541C424.461 181.683 423.753 184.75 422.946 187.842C421.353 194.162 419.183 200.322 416.464 206.245C415.757 207.773 414.937 209.275 414.068 210.778C413.621 211.535 413.174 212.293 412.665 213.038C412.004 214.073 411.225 215.028 410.342 215.881C408.629 217.47 406.597 218.677 404.382 219.42C402.583 220.051 400.722 220.488 398.831 220.724C395.456 221.143 392.045 221.184 388.661 220.849C387.005 220.716 385.391 220.505 383.818 220.215C382.204 219.93 380.677 219.632 379.013 219.197L379.82 212.392C385.487 212.154 391.115 211.322 396.608 209.909C397.726 209.578 398.811 209.145 399.849 208.617C400.532 208.304 401.128 207.832 401.588 207.239C401.489 207.326 402.395 205.823 402.929 204.755C403.463 203.687 404.059 202.272 404.568 201.03C405.611 198.472 406.505 195.765 407.325 192.996C408.144 190.227 408.865 187.408 409.535 184.552C410.206 181.696 410.777 178.815 411.398 175.859C412.019 172.904 412.466 169.973 412.913 167.229L426.622 169.054Z" fill="#7F3E3B"/>
<path d="M430.757 163.913C433.328 172.246 422.897 197.081 422.897 197.081L400.93 191.555C402.275 183.705 404.538 176.041 407.673 168.719C414.751 153.222 427.665 153.868 430.757 163.913Z" fill="#B75656"/>
<path opacity="0.3" d="M430.757 163.913C433.328 172.246 422.897 197.081 422.897 197.081L400.93 191.555C402.275 183.705 404.538 176.041 407.673 168.719C414.751 153.222 427.665 153.868 430.757 163.913Z" fill="white"/>
<path d="M380.13 212.429L369.799 212.169L374.766 222.91C374.766 222.91 378.963 223.469 382.415 217.794L386.053 213.46L381.869 212.616C381.296 212.504 380.714 212.442 380.13 212.429Z" fill="#7F3E3B"/>
<path d="M363.279 214.168L369.203 223.071L374.778 222.91L369.799 212.169L363.279 214.168Z" fill="#7F3E3B"/>
<path opacity="0.2" d="M416.055 418.141L416.514 429.031H425.641L425.169 418.141H416.055Z" fill="black"/>
<path opacity="0.2" d="M491.815 384.836L484.687 390.536L494.025 397.018L501.153 391.318L491.815 384.836Z" fill="black"/>
<path d="M450.762 124.177C450.216 133.217 450.365 138.532 445.795 143.176C438.94 150.155 427.777 146.032 425.616 136.967C423.667 128.846 424.896 115.435 433.737 111.821C435.687 111.015 437.811 110.722 439.906 110.969C442.001 111.217 443.998 111.998 445.705 113.238C447.413 114.477 448.774 116.133 449.659 118.048C450.545 119.963 450.924 122.073 450.762 124.177Z" fill="#7F3E3B"/>
<path d="M458.064 115.782C458.064 115.782 462.82 117.198 461.329 122.625C459.082 130.87 453.792 140.357 446.962 140.953C438.456 141.711 434.619 132.931 433.501 123.854C428.41 120.365 424.635 117.099 425.852 113.473C427.715 107.885 434.47 103.067 445.224 104.309C455.977 105.55 461.329 112.504 458.064 115.782Z" fill="#263238"/>
<path d="M438.68 125.717C438.514 127.959 437.615 130.084 436.121 131.764C434.135 133.95 432.048 132.584 431.701 129.926C431.39 127.517 432.036 123.481 434.47 122.277C436.904 121.072 438.841 123.01 438.68 125.717Z" fill="#7F3E3B"/>
<path d="M435.327 236.073C435.327 236.073 432.247 297.565 438.245 323.617C447.744 364.869 489.505 397.925 489.505 397.925L502.916 387.183C502.916 387.183 468.556 361.615 465.464 327.268C462.695 296.423 466.793 260.995 466.793 236.073H435.327Z" fill="#B75656"/>
<path opacity="0.2" d="M435.327 236.073C435.327 236.073 432.247 297.565 438.245 323.617C447.744 364.869 489.505 397.925 489.505 397.925L502.916 387.183C502.916 387.183 468.556 361.615 465.464 327.268C462.695 296.423 466.793 260.995 466.793 236.073H435.327Z" fill="black"/>
<path opacity="0.2" d="M439.909 254.289C438.667 251.893 436.246 259.033 434.557 268.197C434.557 280.838 434.78 295.218 435.886 307.4C444.317 291.816 442.529 259.256 439.909 254.289Z" fill="black"/>
<path d="M483.42 395.28L488.512 399.229L503.997 386.674L499.352 382.465L483.42 395.28Z" fill="#2C6BDB"/>
<path opacity="0.4" d="M483.42 395.28L488.512 399.229L503.997 386.674L499.352 382.465L483.42 395.28Z" fill="#FAFAFA"/>
<path d="M418.017 236.073C418.017 236.073 404.283 294.312 403.314 322.127C402.234 353.333 413.112 426.92 413.112 426.92H428.572C428.572 426.92 430.471 352.762 431.167 324.338C431.912 293.355 450.091 236.073 450.091 236.073H418.017Z" fill="#B75656"/>
<path opacity="0.2" d="M418.017 236.073C418.017 236.073 404.283 294.312 403.314 322.127C402.234 353.333 413.112 426.92 413.112 426.92H428.572C428.572 426.92 430.471 352.762 431.167 324.338C431.912 293.355 450.091 236.073 450.091 236.073H418.017Z" fill="black"/>
<path d="M410.144 420.761C410.069 420.761 411.013 427.181 411.013 427.181H429.813L430.322 421.456L410.144 420.761Z" fill="#2C6BDB"/>
<path opacity="0.4" d="M410.144 420.761C410.069 420.761 411.013 427.181 411.013 427.181H429.813L430.322 421.456L410.144 420.761Z" fill="#FAFAFA"/>
</svg>
